<?xml version="1.0" encoding="utf-8"?>
<!-- Generator: Adobe Illustrator 24.0.1, SVG Export Plug-In . SVG Version: 6.00 Build 0)  -->
<svg version="1.1" id="Icon_x5F_contour" xmlns="http://www.w3.org/2000/svg" xmlns:xlink="http://www.w3.org/1999/xlink" x="0px"
	 y="0px" viewBox="0 0 192 192" style="enable-background:new 0 0 192 192;" xml:space="preserve">
<path d="M144,148H48c-17.64502,0-32-14.35498-32-32c0-15.63428,11.38916-28.8833,26.4834-31.5166
	C45.1167,69.38916,58.36572,58,74,58c3.37646,0,6.67529,0.52002,9.8457,1.54932C91.72852,48.50049,104.26318,42,118,42
	c23.15869,0,42,18.84131,42,42c0,1.37695-0.0708,2.77148-0.21191,4.16895C169.72656,93.81396,176,104.43311,176,116
	C176,133.64502,161.64502,148,144,148z M74,66c-12.56934,0-23.08301,9.81494-23.93604,22.34473l-0.23682,3.48242l-3.48242,0.23682
	C33.81494,92.91699,24,103.43066,24,116c0,13.23389,10.76611,24,24,24h96c13.23389,0,24-10.76611,24-24
	c0-9.43848-5.5708-18.03613-14.19287-21.90381l-2.82812-1.26855l0.52246-3.05518C151.83252,87.83838,152,85.896,152,84
	c0-18.74756-15.25244-34-34-34c-12.03711,0-22.93555,6.16748-29.15234,16.49854L87.021,69.53418l-3.23438-1.44678
	C80.69141,66.70215,77.39893,66,74,66z"/>
<g>
</g>
<g>
</g>
<g>
</g>
<g>
</g>
<g>
</g>
<g>
</g>
<g>
</g>
<g>
</g>
<g>
</g>
<g>
</g>
<g>
</g>
<g>
</g>
<g>
</g>
<g>
</g>
<g>
</g>
</svg>
