<?xml version="1.0" encoding="utf-8"?>
<!-- Generator: Adobe Illustrator 24.0.1, SVG Export Plug-In . SVG Version: 6.00 Build 0)  -->
<svg version="1.1" id="Icon_x5F_contour" xmlns="http://www.w3.org/2000/svg" xmlns:xlink="http://www.w3.org/1999/xlink" x="0px"
	 y="0px" viewBox="0 0 192 192" style="enable-background:new 0 0 192 192;" xml:space="preserve">
<path d="M96,136c-22.05615,0-40-17.94385-40-40s17.94385-40,40-40s40,17.94385,40,40S118.05615,136,96,136z M96,64
	c-17.64502,0-32,14.35498-32,32s14.35498,32,32,32s32-14.35498,32-32S113.64502,64,96,64z M100,16h-8v32h8V16z M100,144h-8v32h8V144
	z M176,92h-32v8h32V92z M48,92H16v8h32V92z M155.39697,42.26025l-5.65723-5.65723L127.1123,59.23047l5.65723,5.65723
	L155.39697,42.26025z M64.8877,132.76953l-5.65723-5.65723l-22.62744,22.62744l5.65723,5.65723L64.8877,132.76953z
	 M155.39697,149.73975l-22.62744-22.62744l-5.65723,5.65723l22.62744,22.62744L155.39697,149.73975z M64.8877,59.23047
	L42.26025,36.60303l-5.65723,5.65723L59.23047,64.8877L64.8877,59.23047z"/>
<g>
</g>
<g>
</g>
<g>
</g>
<g>
</g>
<g>
</g>
<g>
</g>
<g>
</g>
<g>
</g>
<g>
</g>
<g>
</g>
<g>
</g>
<g>
</g>
<g>
</g>
<g>
</g>
<g>
</g>
</svg>
