<?xml version="1.0" encoding="utf-8"?>
<!-- Generator: Adobe Illustrator 24.0.1, SVG Export Plug-In . SVG Version: 6.00 Build 0)  -->
<svg version="1.1" id="Icon_x5F_contour" xmlns="http://www.w3.org/2000/svg" xmlns:xlink="http://www.w3.org/1999/xlink" x="0px"
	 y="0px" viewBox="0 0 192 192" style="enable-background:new 0 0 192 192;" xml:space="preserve">
<path d="M100,136.70013V56h-8v80.70013c-4.65302,1.65265-8,6.08722-8,11.29987c0,6.6167,5.3833,12,12,12s12-5.3833,12-12
	C108,142.78735,104.65302,138.35278,100,136.70013z M96,152c-2.20557,0-4-1.79443-4-4s1.79443-4,4-4s4,1.79443,4,4
	S98.20557,152,96,152z M116,36c0-11.02783-8.97217-20-20-20s-20,8.97217-20,20v92.41016c-5.10498,5.21533-8,12.25586-8,19.58984
	c0,15.43945,12.56055,28,28,28s28-12.56055,28-28c0-7.33398-2.89502-14.37451-8-19.58984V36z M96,168c-11.02783,0-20-8.97217-20-20
	c0-5.67773,2.43018-11.10986,6.66797-14.90381L84,131.90381V36c0-6.6167,5.3833-12,12-12s12,5.3833,12,12v95.90381l1.33203,1.19238
	C113.56982,136.89014,116,142.32227,116,148C116,159.02783,107.02783,168,96,168z M156,32v8h-12v12h-8V40h-12v-8h12V20h8v12H156z"/>
<g>
</g>
<g>
</g>
<g>
</g>
<g>
</g>
<g>
</g>
<g>
</g>
<g>
</g>
<g>
</g>
<g>
</g>
<g>
</g>
<g>
</g>
<g>
</g>
<g>
</g>
<g>
</g>
<g>
</g>
</svg>
