<?xml version="1.0" encoding="utf-8"?>
<!-- Generator: Adobe Illustrator 24.0.1, SVG Export Plug-In . SVG Version: 6.00 Build 0)  -->
<svg version="1.1" id="Icon_x5F_contour" xmlns="http://www.w3.org/2000/svg" xmlns:xlink="http://www.w3.org/1999/xlink" x="0px"
	 y="0px" viewBox="0 0 192 192" style="enable-background:new 0 0 192 192;" xml:space="preserve">
<path d="M176,115.39624C176,133.37415,161.64502,148,144,148h-4v-8.15094h4c13.23389,0,24-10.96924,24-24.45282
	c0-9.61609-5.5708-18.37598-14.19287-22.31659l-2.82764-1.29254l0.52197-3.1123C151.83252,86.70325,152,84.72418,152,82.79242
	c0-19.10126-15.25244-34.64148-34-34.64148c-12.0376,0-22.93555,6.28436-29.15234,16.8103L87.021,68.0542l-3.23438-1.47412
	C80.69092,65.1687,77.39795,64.45282,74,64.45282c-12.56934,0-23.08301,10.00012-23.93604,22.7663l-0.23682,3.54816
	l-3.48242,0.24127C33.81494,91.87769,24,102.58972,24,115.39624c0,13.48358,10.76611,24.45282,24,24.45282h4V148h-4
	c-17.64502,0-32-14.62585-32-32.60376c0-15.92932,11.38916-29.42828,26.4834-32.11127
	C45.1167,67.90594,58.36572,56.30188,74,56.30188c3.37598,0,6.6748,0.52985,9.8457,1.57904C91.72852,46.6236,104.26318,40,118,40
	c23.15869,0,42,19.19678,42,42.79242c0,1.40344-0.0708,2.82379-0.21191,4.24811C169.72656,92.79156,176,103.61108,176,115.39624z
	 M132,152c0,8.82227-7.17773,16-16,16s-16-7.17773-16-16c0-12.68262,12.74463-24.59229,13.28711-25.09326L116,124.40283
	l2.71289,2.50391C119.25537,127.40771,132,139.31738,132,152z M124,152c0-5.85742-4.53271-12.396-7.99512-16.37402
	C112.54248,139.61475,108,146.1709,108,152c0,4.41113,3.58887,8,8,8S124,156.41113,124,152z M92,160c0,8.82227-7.17773,16-16,16
	s-16-7.17773-16-16c0-12.68262,12.74463-24.59229,13.28711-25.09326L76,132.40283l2.71289,2.50391
	C79.25537,135.40771,92,147.31738,92,160z M84,160c0-5.85742-4.53271-12.396-7.99512-16.37402
	C72.54248,147.61475,68,154.1709,68,160c0,4.41113,3.58887,8,8,8S84,164.41113,84,160z"/>
<g>
</g>
<g>
</g>
<g>
</g>
<g>
</g>
<g>
</g>
<g>
</g>
<g>
</g>
<g>
</g>
<g>
</g>
<g>
</g>
<g>
</g>
<g>
</g>
<g>
</g>
<g>
</g>
<g>
</g>
</svg>
